<svg width="33" height="20" viewBox="0 0 33 20" fill="none" xmlns="http://www.w3.org/2000/svg">
<path d="M6.83181 0.204468C6.59334 0.384155 6.4488 0.64978 5.66111 2.39197C5.16248 3.48572 4.75056 4.37634 4.73611 4.37634C4.72166 4.37634 3.81834 4.51697 2.73435 4.68884C0.537476 5.04041 0.364038 5.10291 0.132788 5.65759C-0.0189697 6.02478 -0.0406494 6.29822 0.067749 6.61853C0.111108 6.73572 0.804858 7.55603 1.61423 8.43884L3.08123 10.0404L2.77048 11.9545C2.59705 13.0092 2.45251 14.0404 2.45251 14.2592C2.45251 14.9779 2.90056 15.4701 3.55818 15.4701C3.86892 15.4701 4.12185 15.3529 5.70447 14.4545L7.49666 13.4388L8.04587 13.7592C8.35662 13.9388 8.61677 14.0638 8.63123 14.0482C8.65291 14.0326 8.03142 13.3295 7.25095 12.5013C5.66833 10.7982 5.41541 10.392 5.27087 9.32947C5.01794 7.52478 6.10193 5.69666 7.72791 5.20447C7.9447 5.14197 8.8408 4.97791 9.71521 4.84509C10.5896 4.70447 11.3123 4.58728 11.3267 4.57166C11.3484 4.54822 11.0738 4.49353 10.539 4.41541L10.2066 4.36072L9.39001 2.55603C8.50837 0.602905 8.34216 0.298218 8.01697 0.11853C7.67732 -0.0689697 7.15701 -0.0299072 6.83181 0.204468Z" fill="white"/>
<path d="M24.4714 0.110718C24.3196 0.173218 24.1318 0.282593 24.0523 0.360718C23.9728 0.438843 23.5175 1.36853 23.0333 2.43103L22.1589 4.36853L21.8265 4.42322C20.9304 4.55603 20.9521 4.57166 22.6503 4.83728C23.5681 4.98572 24.4786 5.14978 24.6737 5.21228C25.223 5.39197 25.7288 5.72791 26.1841 6.25134C27.1741 7.37634 27.4054 9.00916 26.7694 10.431C26.5527 10.9232 26.3575 11.1732 25.1146 12.5013C24.3341 13.3373 23.7126 14.0326 23.7271 14.0482C23.7487 14.0638 24.0161 13.9388 24.3196 13.7592L24.8833 13.4467L26.6683 14.4545C28.2437 15.3451 28.5038 15.4701 28.8073 15.4701C29.465 15.4701 29.913 14.9779 29.913 14.2592C29.913 14.0404 29.7685 13.0092 29.595 11.9545L29.2843 10.0404L30.7513 8.43884C31.5607 7.55603 32.2544 6.73572 32.2978 6.61853C32.4062 6.29822 32.3845 6.02478 32.2327 5.65759C32.0015 5.10291 31.8208 5.04041 29.6528 4.68884C28.5833 4.51697 27.6872 4.37634 27.6583 4.37634C27.6294 4.37634 27.203 3.48572 26.7044 2.39978C25.9384 0.704468 25.7722 0.391968 25.5626 0.251343C25.2302 0.0325928 24.811 -0.0220947 24.4714 0.110718Z" fill="white"/>
<path d="M15.6263 1.87634C15.3228 2.01696 15.3011 2.05603 14.2027 4.43103L13.0898 6.84509L10.7267 7.21228C9.4259 7.4154 8.26965 7.63415 8.16125 7.69665C7.70597 7.94665 7.46027 8.56384 7.59035 9.1029C7.64816 9.36853 7.93722 9.71228 9.4259 11.2982L11.1964 13.1732L10.7989 15.6732C10.5821 17.0404 10.4015 18.2513 10.4015 18.3529C10.4015 18.6967 10.6761 19.181 10.9724 19.3607C11.5288 19.6967 11.6517 19.6576 14.0292 18.3138L16.1827 17.1029L18.3362 18.3138C20.6343 19.6107 20.8294 19.6888 21.3064 19.4154C21.6027 19.2592 21.8773 18.8685 21.9351 18.556C21.964 18.3763 21.8411 17.4154 21.5737 15.7279L21.1691 13.181L22.9396 11.2982C24.4282 9.71228 24.7173 9.36853 24.7751 9.1029C24.9052 8.56384 24.6595 7.94665 24.2042 7.69665C24.0958 7.63415 22.9396 7.4154 21.6388 7.21228L19.2757 6.83728L18.1556 4.43103C17.0644 2.05603 17.0427 2.01696 16.7392 1.87634C16.573 1.7904 16.32 1.72009 16.1827 1.72009C16.0454 1.72009 15.7925 1.7904 15.6263 1.87634Z" fill="white"/>
</svg>
