<svg width="38" height="34" viewBox="0 0 38 34" fill="none" xmlns="http://www.w3.org/2000/svg">
<path d="M18.0723 0.523438C17.3301 0.619923 17.6121 0.53828 9.05469 3.09883C4.72774 4.39023 1.0836 5.51836 0.905471 5.62227C-0.230075 6.26797 -0.282029 8.07891 0.816409 8.80625C0.994534 8.925 1.81836 9.21445 2.87969 9.53359L4.63867 10.068L4.67578 15.1816C4.72032 20.9039 4.67578 20.4957 5.26211 21.3715C5.81875 22.2027 6.42735 22.4551 6.79844 22.0172C7.08047 21.6906 7.03594 21.4309 6.62032 21.0152C5.93008 20.325 5.97461 20.7332 5.95235 15.2707L5.93008 10.4613L6.10078 10.5059C6.19727 10.5281 6.90977 10.7434 7.68164 10.9734L9.0918 11.4039L9.11407 18.9445L9.12891 26.4852L8.87656 26.5742C8.49063 26.7004 7.95625 27.1086 7.65196 27.5242C7.17696 28.1477 7.11016 28.5633 7.13985 30.5078C7.16211 32.3855 7.19922 32.534 7.76328 33.0312C8.27539 33.4766 8.43867 33.5137 9.83399 33.5137H11.0957L11.4965 33.291C11.927 33.0535 12.2535 32.675 12.4094 32.2297C12.4762 32.0441 12.5059 31.5246 12.5059 30.5969V29.2313L12.298 29.0531C12.0309 28.823 11.7191 28.823 11.452 29.0531L11.2441 29.2313L11.2219 30.5672C11.1922 31.8809 11.1922 31.9031 11.0066 32.0813C10.8359 32.2445 10.7766 32.252 9.78203 32.252H8.74297L8.56485 32.0441C8.38672 31.8363 8.38672 31.8141 8.38672 30.3371C8.38672 29.0457 8.40899 28.7934 8.52774 28.541C8.70586 28.1477 9.12891 27.784 9.47774 27.7246C10.0789 27.6281 10.1531 27.5984 10.2793 27.4574C10.398 27.3313 10.4129 27.1383 10.398 25.4609C10.3906 24.4441 10.4055 23.6055 10.4426 23.6055C10.4723 23.6055 10.7172 23.6574 10.9844 23.7242C11.8305 23.9172 13.9531 24.2586 15.2148 24.3996C16.959 24.5852 21.0633 24.5852 22.7852 24.3996C26.3477 24.0063 30.8082 22.9227 31.9215 22.173C32.4336 21.8391 32.8863 21.275 33.1238 20.6961C33.2797 20.3102 33.2871 20.2063 33.3094 16.5844L33.3316 12.8586L33.1609 12.6582C32.916 12.3762 32.4707 12.3762 32.2332 12.6582L32.0625 12.8512V16.3172C32.0625 18.5809 32.0328 19.8871 31.9809 20.0727C31.8621 20.4957 31.5727 20.9039 31.2016 21.1414C30.6746 21.4902 27.6168 22.3512 25.6055 22.7148C23.0375 23.175 20.8035 23.3457 18.1836 23.2863C15.6824 23.227 13.4855 22.9672 11.0215 22.4328L10.4277 22.3066L10.4055 16.8516L10.3906 11.3891L13.6711 10.0754L16.959 8.76172L17.4414 8.925C17.8422 9.05859 18.0945 9.08828 18.9629 9.08828C20.0613 9.0957 20.4695 9.02148 21.0781 8.71719C21.5309 8.49453 22.0207 7.96016 22.0875 7.61133C22.3176 6.3793 21.2711 5.48867 19.4453 5.36992C18.8813 5.33281 18.7922 5.34766 18.6215 5.48867C18.384 5.67422 18.3246 5.92656 18.4508 6.22344C18.5695 6.52031 18.7105 6.57969 19.3711 6.63164C20.284 6.70586 20.9445 7.01016 20.8332 7.30703C20.6031 7.9082 18.1836 8.07149 17.4191 7.53711C17.3301 7.47774 17.1668 7.42578 17.0555 7.42578C16.9367 7.42578 15.2668 8.05664 13.3445 8.83594C11.4223 9.60781 9.79688 10.2461 9.73008 10.2461C9.66328 10.2461 7.79297 9.69687 5.56641 9.02148C2.7461 8.17539 1.49922 7.76719 1.43242 7.6707C1.1875 7.34414 1.26172 6.86172 1.58086 6.69102C1.66992 6.64648 5.31407 5.54062 9.67071 4.23438C18.2875 1.65156 18.2801 1.65156 19.5789 1.78516C20.3879 1.87422 19.9203 1.74063 28.8711 4.42734C36.9016 6.83945 36.7383 6.78008 36.7383 7.24023C36.7383 7.70781 36.9609 7.62617 28.3813 10.209C19.8906 12.7547 19.5492 12.8438 18.4879 12.7324C17.8273 12.6656 17.241 12.532 15.9496 12.1387C14.6953 11.7527 14.4207 11.7305 14.1906 11.9754C13.968 12.2129 13.9754 12.6211 14.198 12.8289C14.3762 12.9922 16.3801 13.6379 17.3598 13.8457C18.5473 14.098 19.757 14.0609 20.9668 13.7418C22.5922 13.3113 36.6938 9.02891 37.0203 8.86563C38.3488 8.19024 38.2895 6.16406 36.9238 5.56289C36.523 5.38477 21.1004 0.760937 20.4844 0.634766C19.8238 0.501171 18.7031 0.449219 18.0723 0.523438Z" fill="black"/>
</svg>
