<svg width="26" height="26" viewBox="0 0 26 26" fill="none" xmlns="http://www.w3.org/2000/svg">
<path d="M0.939623 0.0789375C0.606615 0.1805 0.207006 0.525812 0.0919668 0.805109C0.0132558 1.00823 0.00114645 2.37425 0.00114645 12.9977C0.00114645 26.4903 -0.0472911 25.2563 0.485521 25.6575C0.642943 25.7793 0.885131 25.9063 1.01833 25.9367C1.30896 26.0129 13.8724 26.0231 14.0359 25.952C14.0965 25.9266 15.5375 24.718 17.2449 23.2657L20.3449 20.62L20.3328 19.5739L20.3146 18.5227L19.7697 18.4059C19.0916 18.2586 19.134 18.2739 17.7111 17.7203C16.3004 17.1719 15.9189 17.0856 15.0773 17.1364C14.7625 17.1567 14.2599 17.1871 13.9572 17.2075C13.497 17.2328 13.376 17.2582 13.2004 17.37C13.0853 17.441 12.8916 17.5325 12.7765 17.5629C12.4496 17.6594 10.3668 17.7 10.0277 17.6188C9.70076 17.5426 9.25271 17.2328 9.14372 17.0094L9.07107 16.8571H5.77126H2.47751L2.3322 16.7301C2.23533 16.6539 2.18083 16.5473 2.18083 16.4508C2.18083 16.3543 2.23533 16.2477 2.3322 16.1715L2.47751 16.0446H5.76521H9.0529L9.19822 15.6992C9.27693 15.5114 9.35564 15.3285 9.3738 15.293C9.39197 15.2473 8.70779 15.2321 6.06189 15.2321H2.7197L2.57439 15.1051C2.37458 14.9426 2.37458 14.709 2.57439 14.5465L2.7197 14.4196H6.24958L9.77947 14.4145L9.90662 14.2469C10.0217 14.0946 10.0277 14.0489 9.97322 13.8407L9.91267 13.6071H6.31618H2.7197L2.57439 13.4801C2.47751 13.4039 2.42302 13.2973 2.42302 13.2008C2.42302 13.1043 2.47751 12.9977 2.57439 12.9215L2.7197 12.7946H6.48572H10.2457L10.5363 12.6168C10.6937 12.5203 10.9299 12.3426 11.057 12.2258L11.2871 12.0075L6.97009 11.9821L2.6531 11.9567L2.53806 11.8348C2.38064 11.6723 2.39275 11.4438 2.57439 11.2965L2.7197 11.1696H7.27888H11.8441L11.9592 11.002C12.0197 10.9157 12.1953 10.7328 12.3406 10.6008L12.6131 10.3571H7.66638H2.7197L2.57439 10.2301C2.47751 10.1539 2.42302 10.0473 2.42302 9.95081C2.42302 9.85433 2.47751 9.74769 2.57439 9.67151L2.7197 9.54456H8.67146H14.6232L15.3498 9.13831L16.0763 8.73206H9.39802H2.7197L2.57439 8.60511C2.37458 8.44261 2.37458 8.20901 2.57439 8.04651L2.7197 7.91956H10.173C17.3236 7.91956 17.6263 7.92464 17.7293 8.01097C17.7959 8.06683 17.9715 8.11761 18.1592 8.13792C18.3287 8.15316 18.6435 8.23948 18.8554 8.32581L19.249 8.47816L19.6183 8.28011C19.8181 8.16839 20.0664 8.06175 20.1633 8.04651L20.3449 8.01097V4.53245C20.3449 1.98831 20.3267 0.998077 20.2722 0.850813C20.2359 0.739094 20.0845 0.535969 19.9392 0.403938C19.467 -0.037859 20.2783 -0.00231171 10.1488 0.00276566C2.44119 0.00276566 1.14548 0.0129223 0.939623 0.0789375ZM17.7717 6.42151C17.9715 6.58401 17.9715 6.81761 17.7717 6.98011L17.6263 7.10706H10.173H2.7197L2.57439 6.98011C2.47751 6.90394 2.42302 6.7973 2.42302 6.70081C2.42302 6.60433 2.47751 6.49769 2.57439 6.42151L2.7197 6.29456H10.173H17.6263L17.7717 6.42151ZM17.9957 21.4629C17.5295 21.8793 16.5547 22.7071 15.8402 23.3063L14.5324 24.3981V22.6817V20.9653L14.6838 20.8434L14.8291 20.7164H16.8392H18.8433L17.9957 21.4629Z" fill="white"/>
<path d="M20.581 8.77788C20.351 8.8439 20.1875 8.92007 19.6971 9.2146L19.249 9.48882L18.9584 9.31108C18.0199 8.75249 17.699 8.80327 15.925 9.79858C14.8896 10.3775 14.7019 10.4638 14.1389 10.606C13.3154 10.8091 13.0127 11.0478 12.4496 11.9263C12.05 12.5458 11.7836 12.8302 11.3113 13.14C11.1176 13.2669 10.942 13.4244 10.9238 13.4904C10.8633 13.6783 11.0086 13.8865 11.2689 14.0083C11.3961 14.0693 11.5051 14.1353 11.5051 14.1556C11.499 14.1759 11.3234 14.2927 11.1115 14.4197C10.8996 14.5466 10.6937 14.7041 10.6514 14.7751C10.4758 15.0951 9.93085 16.4001 9.93085 16.4966C9.93085 16.5576 10.0035 16.6693 10.0883 16.7404L10.2457 16.8724L11.3598 16.847L12.4738 16.8216L12.8976 16.5576C13.273 16.3291 13.3396 16.3037 13.4547 16.3544C13.5516 16.3951 13.7574 16.4001 14.1933 16.3697C14.5324 16.3443 15.1076 16.324 15.4709 16.3291C16.3125 16.3291 16.706 16.4255 18.0441 16.9587C18.5951 17.1771 19.2914 17.431 19.5881 17.5224C20.0906 17.6748 20.1935 17.69 20.8959 17.6951L21.6588 17.7001L22.2703 17.9896C22.6033 18.147 22.9484 18.2791 23.0332 18.2791C23.3965 18.2791 23.6266 17.8576 23.3904 17.6291C23.3299 17.5732 22.9303 17.3599 22.5004 17.1619C21.8465 16.8572 21.6891 16.8013 21.5316 16.8318C20.6113 16.9892 20.1814 16.908 18.5891 16.2732C16.6394 15.4912 16.0219 15.3947 14.157 15.5673C13.7271 15.608 13.6969 15.5369 14.0238 15.2373C14.6111 14.6888 15.5617 14.6076 16.924 14.9884C17.5174 15.1509 17.8141 15.156 18.1834 14.9986C18.9099 14.6888 19.1764 13.8712 18.7344 13.3228C18.6496 13.2212 18.6012 13.1197 18.6314 13.0943C18.6557 13.074 19.1582 12.7693 19.7394 12.4189L20.793 11.7791L21.0291 11.972C21.3621 12.2412 22.016 12.9267 22.24 13.2466C22.3974 13.4701 22.6639 13.6732 23.7295 14.374C25.1342 15.3083 25.2371 15.349 25.5217 15.1052C25.7154 14.9478 25.7215 14.7091 25.5398 14.5568C25.4611 14.4958 24.9101 14.1201 24.3107 13.724C23.3359 13.0841 23.1846 12.9623 22.8758 12.5814C22.6881 12.3529 22.3248 11.9669 22.0766 11.7283L21.6224 11.2966L21.9252 11.0732C22.3611 10.7533 22.4943 10.5197 22.4943 10.0525C22.4943 9.77827 22.458 9.62085 22.3793 9.4939C22.2219 9.24507 21.9312 8.99624 21.6527 8.87437C21.3924 8.76265 20.8293 8.71187 20.581 8.77788ZM21.2168 9.59546C21.3863 9.64624 21.5558 9.88491 21.5558 10.0626C21.5498 10.281 21.3984 10.408 20.4902 10.9615L19.576 11.515L19.2308 11.1392C19.0432 10.931 18.8978 10.7431 18.9221 10.7177C18.9584 10.6669 20.5326 9.7021 20.7385 9.60562C20.8898 9.53452 21.017 9.52944 21.2168 9.59546ZM18.1894 9.86968L18.4256 9.98647L17.4629 10.5705C13.2973 13.0994 12.5162 13.5615 12.4314 13.5361C12.3527 13.5107 12.3648 13.4751 12.498 13.338C12.8129 13.013 13.1277 12.6119 13.376 12.2005C13.7029 11.6775 13.9209 11.5099 14.49 11.3677C15.0955 11.2154 15.3256 11.1087 16.4881 10.4587C17.3599 9.97124 17.7959 9.75796 17.923 9.7478C17.9412 9.7478 18.0562 9.80366 18.1894 9.86968ZM18.4377 11.6013C18.6314 11.8146 18.7767 11.9923 18.7646 12.0025C18.7525 12.0126 18.0441 12.4443 17.1965 12.9572L15.6525 13.8916L15.1258 13.9474C14.8351 13.983 14.4598 14.0591 14.2842 14.1201L13.9693 14.2369L13.7998 14.0642L13.6242 13.8916L14.0541 13.6376C14.2902 13.4955 15.2832 12.8962 16.2519 12.3021C17.2207 11.713 18.032 11.2255 18.0502 11.2255C18.0683 11.2205 18.2439 11.3931 18.4377 11.6013ZM17.9836 13.922C17.9836 14.0591 17.8807 14.2064 17.7414 14.2673C17.6506 14.308 17.5355 14.3029 17.2873 14.2369C17.1057 14.1861 16.9543 14.1353 16.9543 14.1201C16.9603 14.1048 17.142 13.983 17.366 13.8458L17.7717 13.6072L17.8807 13.7138C17.9351 13.7748 17.9836 13.8662 17.9836 13.922ZM13.0369 14.9732C12.9582 15.1103 12.8734 15.3083 12.8553 15.415C12.831 15.5876 12.7766 15.6435 12.4859 15.8111C12.1711 15.999 12.1105 16.0142 11.6443 16.0345C11.3658 16.0498 11.1418 16.0396 11.1418 16.0142C11.1418 15.9431 11.4566 15.2626 11.5232 15.1916C11.5535 15.156 11.8683 14.958 12.2195 14.7498L12.8492 14.3689L13.0187 14.5517L13.1943 14.7294L13.0369 14.9732Z" fill="white"/>
</svg>
