<svg width="13" height="9" viewBox="0 0 13 9" fill="none" xmlns="http://www.w3.org/2000/svg">
<path fill-rule="evenodd" clip-rule="evenodd" d="M0.824143 0.367112C0.53125 0.660005 0.53125 1.13141 0.53125 2.07422V6.82422C0.53125 7.76703 0.53125 8.23843 0.824143 8.53133C1.11704 8.82422 1.58844 8.82422 2.53125 8.82422H10.5312C11.4741 8.82422 11.9455 8.82422 12.2384 8.53133C12.5312 8.23843 12.5312 7.76703 12.5312 6.82422V2.07422C12.5312 1.13141 12.5312 0.660005 12.2384 0.367112C11.9455 0.0742188 11.4741 0.0742188 10.5312 0.0742188H2.53125C1.58844 0.0742188 1.11704 0.0742188 0.824143 0.367112ZM3.06125 1.72622C2.59291 1.43351 1.97596 1.57588 1.68325 2.04422C1.39054 2.51256 1.53291 3.12951 2.00125 3.42222L5.47125 5.59097C6.11979 5.99631 6.94271 5.99631 7.59125 5.59097L11.0612 3.42222C11.5296 3.12951 11.672 2.51256 11.3792 2.04422C11.0865 1.57588 10.4696 1.43351 10.0013 1.72622L6.53125 3.89497L3.06125 1.72622Z" fill="white"/>
</svg>
