<svg width="9" height="11" viewBox="0 0 9 11" fill="none" xmlns="http://www.w3.org/2000/svg">
<path fill-rule="evenodd" clip-rule="evenodd" d="M4.53027 2.95312C3.62256 2.95312 2.88672 3.71273 2.88672 4.64974C2.88672 5.58675 3.62256 6.34635 4.53027 6.34635C5.43798 6.34635 6.17383 5.58675 6.17383 4.64974C6.17383 3.71273 5.43798 2.95312 4.53027 2.95312ZM4.53076 0.40625C6.79363 0.40625 8.63965 2.42324 8.63965 4.92641C8.63965 6.38139 7.41798 8.21781 4.78953 10.3761C4.6385 10.4986 4.42228 10.4995 4.272 10.3761C1.64355 8.21781 0.421875 6.38139 0.421875 4.92641C0.421875 2.42324 2.2679 0.40625 4.53076 0.40625Z" fill="white"/>
</svg>
