<svg width="12" height="11" viewBox="0 0 12 11" fill="none" xmlns="http://www.w3.org/2000/svg">
<path d="M9.86821 6.76421L11.2449 8.05194C11.5684 8.3546 11.5684 8.86785 11.2449 9.17051C9.65736 10.6555 7.24647 10.8248 5.46695 9.5764L5.14068 9.34751C3.85691 8.44687 2.70736 7.3687 1.72638 6.14522L1.65451 6.05558C0.280279 4.34163 0.45804 1.85844 2.06239 0.357717C2.33165 0.10585 2.75007 0.105851 3.01933 0.357717L4.41782 1.66588C4.84032 2.06108 4.84032 2.73127 4.41782 3.12647L3.54934 3.93886C3.34643 4.12866 3.29639 4.43114 3.42737 4.67617C4.14584 6.0203 5.28023 7.09566 6.66079 7.74136L6.79256 7.80299C7.03373 7.91578 7.31927 7.8705 7.51371 7.68862L8.50196 6.76421C8.88639 6.40461 9.48378 6.40461 9.86821 6.76421Z" fill="white"/>
</svg>
