<svg width="11" height="11" viewBox="0 0 11 11" fill="none" xmlns="http://www.w3.org/2000/svg">
<path d="M1.6222 0.0279226C1.57494 0.0451107 1.50619 0.07304 1.46966 0.0923758C1.38588 0.135345 0.711266 0.779876 0.509313 1.00546C0.337438 1.20097 0.176305 1.4996 0.098961 1.76386C-0.296352 3.13027 0.517906 5.15195 2.30541 7.24023C2.61263 7.59687 3.54506 8.51425 3.92103 8.82792C5.93627 10.5059 7.83334 11.2578 9.18685 10.9141C9.27924 10.8904 9.464 10.8174 9.59291 10.7551C9.8722 10.6176 9.98822 10.5187 10.5167 9.96874C10.9464 9.52187 10.9894 9.45097 10.9894 9.18456C10.9894 8.88808 11.0066 8.90956 9.88939 7.79667C8.96556 6.87714 8.89896 6.81269 8.78724 6.77617C8.61322 6.71816 8.41556 6.72675 8.26088 6.79765C8.16205 6.84277 8.06107 6.92656 7.79037 7.19511C7.34349 7.63554 7.19525 7.71718 6.83002 7.71718C6.60873 7.71718 6.46048 7.66992 6.19838 7.52382C5.32611 7.03613 4.56556 6.36581 3.964 5.55585C3.66107 5.1455 3.37963 4.6664 3.31732 4.458C3.24213 4.19159 3.28724 3.85644 3.43119 3.62441C3.46127 3.57499 3.63314 3.38378 3.81576 3.20116C4.07572 2.93691 4.15736 2.84023 4.20248 2.7414C4.27338 2.58456 4.28197 2.38691 4.22396 2.21288C4.18744 2.10116 4.12298 2.03456 3.20345 1.11074C2.12064 0.0236263 2.11849 0.0214777 1.85209 0.00858688C1.7683 0.00429058 1.67162 0.0128841 1.6222 0.0279226Z" fill="#292929"/>
</svg>
