<svg width="25" height="25" viewBox="0 0 25 25" fill="none" xmlns="http://www.w3.org/2000/svg">
<g clip-path="url(#clip0_46_459)">
<path d="M3.38867 0.0927744C3.23731 0.161134 3.15918 0.239259 3.08106 0.400392C2.9834 0.600587 2.97852 0.688478 2.97852 1.77246V2.92969H1.79688C0.688479 2.92969 0.605471 2.93457 0.400393 3.03223C0.23926 3.11035 0.161135 3.18848 0.0927759 3.33984C-0.0341772 3.62305 -0.0244116 3.80371 0.141604 4.05762C0.327151 4.34082 4.66309 8.65723 4.86817 8.75977C5 8.82813 5.23438 8.83789 6.40625 8.83789H7.78809L9.83887 10.8936C10.9668 12.0264 11.9873 13.0127 12.1045 13.0908C12.2363 13.1787 12.3877 13.2324 12.4902 13.2324C12.8613 13.2324 13.2324 12.8613 13.2324 12.4902C13.2324 12.3877 13.1787 12.2363 13.0908 12.1045C13.0127 11.9873 12.0264 10.9668 10.8936 9.83887L8.83789 7.78809V6.40625C8.83789 5.21484 8.82813 5.00488 8.75488 4.86817C8.65723 4.67285 4.29688 0.25879 4.05762 0.112306C3.84278 -0.0244131 3.65235 -0.0292959 3.38867 0.0927744Z" fill="white"/>
<path d="M11.2309 0.0781326C10.1469 0.205086 8.98477 0.50782 7.9545 0.922859C7.62735 1.05958 7.33926 1.18653 7.31973 1.20606C7.29532 1.23048 7.77872 1.74805 8.38907 2.35352L9.49747 3.46192L10.0248 3.32032C10.933 3.07618 11.4994 3.00782 12.5248 3.00782C13.7357 3.00782 14.7123 3.17384 15.7475 3.55958C18.6869 4.64356 20.9428 7.12892 21.7045 10.1074C21.934 11.0108 21.9926 11.4893 21.9926 12.5C21.9926 13.5107 21.934 13.9893 21.7045 14.8926C20.8647 18.1787 18.1791 20.8643 14.893 21.7041C13.9897 21.9336 13.5111 21.9922 12.5004 21.9922C11.4897 21.9922 11.0111 21.9336 10.1078 21.7041C6.82169 20.8643 4.13614 18.1787 3.2963 14.8926C3.0668 13.999 3.00821 13.5107 3.00821 12.5244C3.00821 11.499 3.07657 10.9326 3.32071 10.0244L3.46231 9.49708L2.35391 8.38868C1.74844 7.77833 1.23087 7.29493 1.20645 7.31935C1.18692 7.33888 1.05997 7.62696 0.923249 7.95411C0.185944 9.7754 -0.11679 11.7285 0.0492258 13.5498C0.381257 17.1484 2.16348 20.3369 5.05411 22.5098C6.89981 23.8965 9.08731 24.7315 11.4506 24.9512C13.6283 25.1514 16.0844 24.6826 18.0668 23.6816C19.3998 23.0078 20.7963 21.9434 21.7533 20.8691C23.6283 18.7598 24.6928 16.3232 24.9516 13.5498C25.1518 11.3721 24.683 8.91602 23.682 6.9336C22.4809 4.55079 20.4496 2.51954 18.0668 1.31837C16.016 0.283211 13.433 -0.185539 11.2309 0.0781326Z" fill="white"/>
<path d="M11.9712 6.02877C11.6539 6.06783 11.0289 6.19967 10.7164 6.29732L10.3843 6.39498V6.8442V7.28853L11.2095 8.11373L12.0396 8.94381L12.6402 8.95357C13.2554 8.96334 13.5093 9.01217 13.9976 9.21724C15.0425 9.66158 15.8677 10.6381 16.1509 11.7563C16.19 11.9077 16.2193 12.269 16.2193 12.5864C16.2193 12.9038 16.19 13.2651 16.1509 13.4165C15.814 14.7544 14.7496 15.8188 13.4117 16.1557C13.065 16.2436 12.0982 16.2436 11.7515 16.1557C10.6334 15.8725 9.65679 15.0473 9.21246 14.0024C9.00738 13.5141 8.95855 13.2602 8.94879 12.645L8.93902 12.0444L8.10894 11.2143L7.28375 10.3891H6.83941H6.39019L6.29254 10.7163C5.82867 12.2544 5.91656 13.7338 6.55621 15.2231C7.18609 16.6879 8.48004 17.9819 9.94488 18.6118C11.0093 19.0708 12.0933 19.2465 13.1822 19.1391C14.7593 18.9829 16.1119 18.3432 17.2252 17.2299C18.3384 16.1167 18.9781 14.7641 19.1343 13.187C19.4419 10.0864 17.4253 7.14693 14.3931 6.25826C13.6851 6.0483 12.606 5.94576 11.9712 6.02877Z" fill="white"/>
</g>
<defs>
<clipPath id="clip0_46_459">
<rect width="25" height="25" fill="white"/>
</clipPath>
</defs>
</svg>
