<svg width="301" height="47" viewBox="0 0 301 47" fill="none" xmlns="http://www.w3.org/2000/svg">
<path d="M31.5854 39.4739V45.9038H0.615411V4.61052H30.7595V11.0405H8.28416V21.7767H28.2229V28.0887H8.28416V39.4739H31.5854ZM69.9904 2.13292V45.9038H62.9116V41.8335C61.6924 43.3279 60.1784 44.4487 58.3693 45.1959C56.5996 45.9431 54.6333 46.3167 52.4703 46.3167C49.4421 46.3167 46.7089 45.6482 44.2706 44.3111C41.8717 42.974 39.984 41.0863 38.6075 38.648C37.2311 36.1704 36.5429 33.3389 36.5429 30.1534C36.5429 26.9679 37.2311 24.156 38.6075 21.7177C39.984 19.2795 41.8717 17.3918 44.2706 16.0547C46.7089 14.7175 49.4421 14.049 52.4703 14.049C54.5546 14.049 56.462 14.4029 58.1924 15.1108C59.9227 15.8187 61.3975 16.8805 62.6166 18.2963V2.13292H69.9904ZM53.3551 40.0048C55.1249 40.0048 56.7176 39.6115 58.1334 38.825C59.5491 37.9991 60.6699 36.8389 61.4958 35.3445C62.3217 33.8501 62.7346 32.1197 62.7346 30.1534C62.7346 28.187 62.3217 26.4566 61.4958 24.9622C60.6699 23.4678 59.5491 22.3273 58.1334 21.5408C56.7176 20.7149 55.1249 20.302 53.3551 20.302C51.5854 20.302 49.9927 20.7149 48.5769 21.5408C47.1611 22.3273 46.0403 23.4678 45.2145 24.9622C44.3886 26.4566 43.9757 28.187 43.9757 30.1534C43.9757 32.1197 44.3886 33.8501 45.2145 35.3445C46.0403 36.8389 47.1611 37.9991 48.5769 38.825C49.9927 39.6115 51.5854 40.0048 53.3551 40.0048ZM110.135 14.4029V45.9038H103.115V41.8925C101.935 43.3082 100.46 44.4094 98.6906 45.1959C96.9209 45.9431 95.0136 46.3167 92.9686 46.3167C88.7606 46.3167 85.4375 45.1566 82.9992 42.8363C80.6003 40.4767 79.4008 36.9963 79.4008 32.395V14.4029H86.7746V31.3922C86.7746 34.2237 87.4038 36.3474 88.6623 37.7631C89.9601 39.1396 91.7888 39.8278 94.1484 39.8278C96.7833 39.8278 98.8676 39.0216 100.401 37.4092C101.974 35.7575 102.761 33.3978 102.761 30.3303V14.4029H110.135ZM134.242 46.3167C130.978 46.3167 128.048 45.6285 125.452 44.2521C122.857 42.8756 120.832 40.9683 119.376 38.53C117.921 36.0524 117.194 33.2602 117.194 30.1534C117.194 27.0465 117.921 24.274 119.376 21.8357C120.832 19.3975 122.837 17.4901 125.393 16.1137C127.989 14.7372 130.939 14.049 134.242 14.049C137.349 14.049 140.062 14.6782 142.383 15.9367C144.742 17.1951 146.512 19.0042 147.692 21.3638L142.029 24.6673C141.124 23.2122 139.984 22.1307 138.607 21.4228C137.27 20.6756 135.795 20.302 134.183 20.302C131.43 20.302 129.149 21.2065 127.34 23.0155C125.531 24.7852 124.627 27.1645 124.627 30.1534C124.627 33.1422 125.511 35.5412 127.281 37.3502C129.09 39.1199 131.391 40.0048 134.183 40.0048C135.795 40.0048 137.27 39.6508 138.607 38.9429C139.984 38.1957 141.124 37.0946 142.029 35.6395L147.692 38.9429C146.473 41.3026 144.683 43.1313 142.324 44.429C140.003 45.6875 137.31 46.3167 134.242 46.3167ZM166.1 14.049C170.741 14.049 174.28 15.1698 176.718 17.4114C179.196 19.6138 180.435 22.9565 180.435 27.4398V45.9038H173.474V42.0694C172.569 43.4459 171.272 44.5077 169.581 45.2549C167.929 45.9628 165.923 46.3167 163.564 46.3167C161.204 46.3167 159.139 45.9235 157.37 45.1369C155.6 44.3111 154.223 43.1902 153.24 41.7745C152.296 40.3194 151.824 38.6873 151.824 36.8783C151.824 34.0467 152.867 31.7854 154.951 30.0944C157.075 28.364 160.398 27.4988 164.92 27.4988H173.061V27.0269C173.061 24.8246 172.392 23.1335 171.055 21.9537C169.757 20.7739 167.811 20.184 165.215 20.184C163.446 20.184 161.695 20.4593 159.965 21.0099C158.274 21.5604 156.839 22.3273 155.659 23.3105L152.768 17.9424C154.42 16.6839 156.406 15.7204 158.726 15.0518C161.047 14.3833 163.505 14.049 166.1 14.049ZM165.097 40.9486C166.946 40.9486 168.578 40.5357 169.993 39.7098C171.449 38.8446 172.471 37.6255 173.061 36.0524V32.395H165.451C161.204 32.395 159.08 33.7911 159.08 36.5833C159.08 37.9204 159.611 38.9823 160.673 39.7688C161.735 40.5553 163.21 40.9486 165.097 40.9486ZM208.834 44.1931C207.969 44.901 206.907 45.4319 205.649 45.7858C204.429 46.1398 203.132 46.3167 201.755 46.3167C198.294 46.3167 195.62 45.4122 193.732 43.6032C191.845 41.7941 190.901 39.1592 190.901 35.6985V20.5379H185.71V14.6389H190.901V7.44206H198.275V14.6389H206.71V20.5379H198.275V35.5215C198.275 37.0552 198.648 38.2351 199.396 39.0609C200.143 39.8475 201.224 40.2407 202.64 40.2407C204.292 40.2407 205.668 39.8081 206.769 38.9429L208.834 44.1931ZM214.9 14.4029H222.274V45.9038H214.9V14.4029ZM218.616 9.21177C217.279 9.21177 216.158 8.79884 215.254 7.97298C214.349 7.10778 213.897 6.04596 213.897 4.78749C213.897 3.52903 214.349 2.48687 215.254 1.661C216.158 0.79581 217.279 0.363214 218.616 0.363214C219.953 0.363214 221.074 0.776146 221.979 1.60201C222.883 2.38855 223.336 3.39139 223.336 4.61052C223.336 5.90831 222.883 7.00946 221.979 7.91398C221.114 8.77918 219.993 9.21177 218.616 9.21177ZM246.11 46.3167C242.924 46.3167 240.053 45.6285 237.497 44.2521C234.941 42.8756 232.935 40.9683 231.48 38.53C230.064 36.0524 229.356 33.2602 229.356 30.1534C229.356 27.0465 230.064 24.274 231.48 21.8357C232.935 19.3975 234.941 17.4901 237.497 16.1137C240.053 14.7372 242.924 14.049 246.11 14.049C249.334 14.049 252.225 14.7372 254.781 16.1137C257.337 17.4901 259.323 19.3975 260.739 21.8357C262.194 24.274 262.922 27.0465 262.922 30.1534C262.922 33.2602 262.194 36.0524 260.739 38.53C259.323 40.9683 257.337 42.8756 254.781 44.2521C252.225 45.6285 249.334 46.3167 246.11 46.3167ZM246.11 40.0048C248.823 40.0048 251.065 39.1002 252.834 37.2912C254.604 35.4822 255.489 33.1029 255.489 30.1534C255.489 27.2038 254.604 24.8246 252.834 23.0155C251.065 21.2065 248.823 20.302 246.11 20.302C243.396 20.302 241.154 21.2065 239.385 23.0155C237.654 24.8246 236.789 27.2038 236.789 30.1534C236.789 33.1029 237.654 35.4822 239.385 37.2912C241.154 39.1002 243.396 40.0048 246.11 40.0048ZM287.847 14.049C291.819 14.049 295.005 15.2091 297.404 17.5294C299.802 19.8497 301.002 23.2908 301.002 27.8527V45.9038H293.628V28.7966C293.628 26.0437 292.979 23.979 291.681 22.6026C290.384 21.1868 288.535 20.4789 286.136 20.4789C283.423 20.4789 281.279 21.3048 279.706 22.9565C278.133 24.5689 277.347 26.9089 277.347 29.9764V45.9038H269.973V14.4029H276.993V18.4733C278.212 17.0182 279.746 15.917 281.594 15.1698C283.442 14.4226 285.527 14.049 287.847 14.049Z" fill="#273953"/>
</svg>
