<svg width="89" height="11" viewBox="0 0 89 11" fill="none" xmlns="http://www.w3.org/2000/svg">
<path d="M0.028 10L4.508 0.199999H5.53L10.01 10H8.918L4.802 0.802H5.222L1.106 10H0.028ZM1.792 7.382L2.1 6.542H7.798L8.106 7.382H1.792ZM11.6312 10V0.199999H15.8592C16.9512 0.199999 17.7958 0.419333 18.3932 0.857999C18.9998 1.29667 19.3032 1.91733 19.3032 2.72C19.3032 3.252 19.1772 3.7 18.9252 4.064C18.6825 4.428 18.3465 4.70333 17.9172 4.89C17.4972 5.07667 17.0352 5.17 16.5312 5.17L16.7692 4.834C17.3945 4.834 17.9312 4.932 18.3792 5.128C18.8365 5.31467 19.1912 5.59933 19.4432 5.982C19.6952 6.35533 19.8212 6.822 19.8212 7.382C19.8212 8.21267 19.5132 8.85667 18.8972 9.314C18.2905 9.77133 17.3712 10 16.1392 10H11.6312ZM12.6672 9.146H16.1252C16.9838 9.146 17.6418 9.00133 18.0992 8.712C18.5565 8.41333 18.7852 7.942 18.7852 7.298C18.7852 6.66333 18.5565 6.20133 18.0992 5.912C17.6418 5.61333 16.9838 5.464 16.1252 5.464H12.5552V4.61H15.7892C16.5732 4.61 17.1798 4.46067 17.6092 4.162C18.0478 3.86333 18.2672 3.42 18.2672 2.832C18.2672 2.23467 18.0478 1.79133 17.6092 1.502C17.1798 1.20333 16.5732 1.054 15.7892 1.054H12.6672V9.146ZM26.4418 10.084C25.7045 10.084 25.0232 9.96267 24.3978 9.72C23.7725 9.468 23.2312 9.118 22.7738 8.67C22.3165 8.222 21.9572 7.69467 21.6958 7.088C21.4438 6.48133 21.3178 5.81867 21.3178 5.1C21.3178 4.38133 21.4438 3.71867 21.6958 3.112C21.9572 2.50533 22.3165 1.978 22.7738 1.53C23.2405 1.082 23.7865 0.736666 24.4118 0.494C25.0372 0.242 25.7185 0.116 26.4558 0.116C27.1652 0.116 27.8325 0.237333 28.4578 0.48C29.0832 0.713333 29.6105 1.068 30.0398 1.544L29.3818 2.202C28.9805 1.79133 28.5372 1.49733 28.0518 1.32C27.5665 1.13333 27.0438 1.04 26.4838 1.04C25.8958 1.04 25.3498 1.14267 24.8458 1.348C24.3418 1.544 23.9032 1.82867 23.5298 2.202C23.1565 2.566 22.8625 2.99533 22.6478 3.49C22.4425 3.97533 22.3398 4.512 22.3398 5.1C22.3398 5.688 22.4425 6.22933 22.6478 6.724C22.8625 7.20933 23.1565 7.63867 23.5298 8.012C23.9032 8.376 24.3418 8.66067 24.8458 8.866C25.3498 9.062 25.8958 9.16 26.4838 9.16C27.0438 9.16 27.5665 9.06667 28.0518 8.88C28.5372 8.69333 28.9805 8.39467 29.3818 7.984L30.0398 8.642C29.6105 9.118 29.0832 9.47733 28.4578 9.72C27.8325 9.96267 27.1605 10.084 26.4418 10.084ZM35.9124 10V0.199999H39.9024C40.9477 0.199999 41.8624 0.409999 42.6464 0.83C43.4397 1.24067 44.0557 1.81467 44.4944 2.552C44.9331 3.28933 45.1524 4.13867 45.1524 5.1C45.1524 6.06133 44.9331 6.91067 44.4944 7.648C44.0557 8.38533 43.4397 8.964 42.6464 9.384C41.8624 9.79467 40.9477 10 39.9024 10H35.9124ZM36.9484 9.104H39.8464C40.7144 9.104 41.4657 8.936 42.1004 8.6C42.7444 8.25467 43.2437 7.78333 43.5984 7.186C43.9531 6.57933 44.1304 5.884 44.1304 5.1C44.1304 4.30667 43.9531 3.61133 43.5984 3.014C43.2437 2.41667 42.7444 1.95 42.1004 1.614C41.4657 1.26867 40.7144 1.096 39.8464 1.096H36.9484V9.104ZM48.4028 4.582H53.5828V5.464H48.4028V4.582ZM48.5148 9.104H54.4088V10H47.4788V0.199999H54.1988V1.096H48.5148V9.104ZM59.546 10.084C58.818 10.084 58.118 9.96733 57.446 9.734C56.7834 9.49133 56.27 9.18333 55.906 8.81L56.312 8.012C56.6574 8.348 57.1194 8.63267 57.698 8.866C58.286 9.09 58.902 9.202 59.546 9.202C60.162 9.202 60.6614 9.12733 61.044 8.978C61.436 8.81933 61.7207 8.60933 61.898 8.348C62.0847 8.08667 62.178 7.79733 62.178 7.48C62.178 7.09733 62.066 6.78933 61.842 6.556C61.6274 6.32267 61.3427 6.14067 60.988 6.01C60.6334 5.87 60.2414 5.74867 59.812 5.646C59.3827 5.54333 58.9534 5.436 58.524 5.324C58.0947 5.20267 57.698 5.044 57.334 4.848C56.9794 4.652 56.69 4.39533 56.466 4.078C56.2514 3.75133 56.144 3.32667 56.144 2.804C56.144 2.31867 56.27 1.87533 56.522 1.474C56.7834 1.06333 57.18 0.736666 57.712 0.494C58.244 0.242 58.9254 0.116 59.756 0.116C60.3067 0.116 60.8527 0.195333 61.394 0.354C61.9354 0.503333 62.402 0.713333 62.794 0.983999L62.444 1.81C62.024 1.53 61.576 1.32467 61.1 1.194C60.6334 1.06333 60.1807 0.998 59.742 0.998C59.154 0.998 58.6687 1.07733 58.286 1.236C57.9034 1.39467 57.6187 1.60933 57.432 1.88C57.2547 2.14133 57.166 2.44 57.166 2.776C57.166 3.15867 57.2734 3.46667 57.488 3.7C57.712 3.93333 58.0014 4.11533 58.356 4.246C58.72 4.37667 59.1167 4.49333 59.546 4.596C59.9754 4.69867 60.4 4.81067 60.82 4.932C61.2494 5.05333 61.6414 5.212 61.996 5.408C62.36 5.59467 62.6494 5.84667 62.864 6.164C63.088 6.48133 63.2 6.89667 63.2 7.41C63.2 7.886 63.0694 8.32933 62.808 8.74C62.5467 9.14133 62.1454 9.468 61.604 9.72C61.072 9.96267 60.386 10.084 59.546 10.084ZM65.4573 10V0.199999H66.4933V10H65.4573ZM73.9799 10.084C73.2333 10.084 72.5426 9.96267 71.9079 9.72C71.2826 9.468 70.7366 9.118 70.2699 8.67C69.8126 8.222 69.4533 7.69467 69.1919 7.088C68.9399 6.48133 68.8139 5.81867 68.8139 5.1C68.8139 4.38133 68.9399 3.71867 69.1919 3.112C69.4533 2.50533 69.8173 1.978 70.2839 1.53C70.7506 1.082 71.2966 0.736666 71.9219 0.494C72.5566 0.242 73.2473 0.116 73.9939 0.116C74.7406 0.116 75.4219 0.232666 76.0379 0.465999C76.6633 0.699333 77.1953 1.054 77.6339 1.53L76.9899 2.188C76.5793 1.77733 76.1266 1.48333 75.6319 1.306C75.1373 1.12867 74.6053 1.04 74.0359 1.04C73.4293 1.04 72.8693 1.14267 72.3559 1.348C71.8519 1.544 71.4086 1.82867 71.0259 2.202C70.6526 2.566 70.3586 2.99533 70.1439 3.49C69.9386 3.97533 69.8359 4.512 69.8359 5.1C69.8359 5.67867 69.9386 6.21533 70.1439 6.71C70.3586 7.20467 70.6526 7.63867 71.0259 8.012C71.4086 8.376 71.8519 8.66067 72.3559 8.866C72.8693 9.062 73.4246 9.16 74.0219 9.16C74.5819 9.16 75.1093 9.076 75.6039 8.908C76.1079 8.74 76.5699 8.45533 76.9899 8.054L77.5779 8.838C77.1113 9.24867 76.5653 9.56133 75.9399 9.776C75.3146 9.98133 74.6613 10.084 73.9799 10.084ZM76.5839 8.712V5.1H77.5779V8.838L76.5839 8.712ZM80.5101 10V0.199999H81.3641L88.1261 8.712H87.6781V0.199999H88.7001V10H87.8461L81.0981 1.488H81.5461V10H80.5101Z" fill="#292929"/>
</svg>
