<svg width="195" height="222" viewBox="0 0 195 222" fill="none" xmlns="http://www.w3.org/2000/svg">
<path d="M193.648 65.3342L172.133 59.0205L173.574 38.9221C106.869 7.53536 44.9729 25.8443 22.3632 38.9221C20.347 53.3233 23.9833 76.9654 26.0535 86.9863L135.683 116.509C131.147 132.71 108.231 156.502 97.3397 166.373C88.627 161.189 70.8774 141.171 59.9725 118.505L9.17083 103.797C0.717418 84.9461 -0.39854 44.139 0.100157 26.0919C82.7389 -20.4928 164.285 5.76185 194.729 24.7122L193.648 65.3342Z" fill="#273953"/>
<path d="M44.7009 136.939L16.9555 129.962C33.118 173.502 77.3787 209.244 97.4888 221.672C156.32 179.223 185.694 131.325 190.186 87.4858L149.448 75.5362L150.942 53.6464C109.987 33.6361 63.0502 45.3088 44.7009 53.6464V69.1866L164.761 102.293C149.353 150.755 113.493 184.278 97.4888 194.981C71.3832 177.112 51.4195 148.841 44.7009 136.939Z" fill="#273953"/>
</svg>
