<svg width="315" height="85" viewBox="0 0 315 85" fill="none" xmlns="http://www.w3.org/2000/svg">
<path d="M32.2717 84.6797C25.9859 84.6797 19.8941 83.7872 13.9964 82.0024C8.17623 80.2175 3.55891 77.8507 0.14442 74.9018L5.38256 63.1451C8.71945 65.7836 12.7936 67.9564 17.6049 69.6637C22.4938 71.2933 27.3827 72.1081 32.2717 72.1081C38.3246 72.1081 42.8255 71.1381 45.7744 69.198C48.8009 67.258 50.3141 64.6971 50.3141 61.5154C50.3141 59.1874 49.4605 57.2861 47.7533 55.8117C46.1236 54.2597 44.0284 53.0568 41.4675 52.2032C38.9066 51.3496 35.4146 50.3796 30.9912 49.2931C24.7831 47.8187 19.7389 46.3442 15.8588 44.8698C12.0563 43.3954 8.75825 41.1061 5.96457 38.002C3.2485 34.8203 1.89047 30.5522 1.89047 25.1977C1.89047 20.6968 3.0933 16.6227 5.49896 12.9754C7.98223 9.25046 11.6683 6.30158 16.5573 4.12873C21.5238 1.95587 27.5767 0.869442 34.7161 0.869442C39.6827 0.869442 44.5716 1.49026 49.3829 2.73189C54.1942 3.97353 58.346 5.75837 61.838 8.08644L57.0655 19.8431C53.4958 17.7479 49.7709 16.157 45.8908 15.0706C42.0107 13.9842 38.247 13.441 34.5997 13.441C28.6244 13.441 24.1623 14.4498 21.2134 16.4675C18.3421 18.4851 16.9065 21.1624 16.9065 24.4993C16.9065 26.8273 17.7213 28.7286 19.3509 30.203C21.0582 31.6775 23.1922 32.8415 25.7531 33.6951C28.314 34.5487 31.8061 35.5188 36.2294 36.6052C42.2823 38.002 47.2489 39.4765 51.129 41.0285C55.0091 42.5029 58.3072 44.7922 61.0232 47.8963C63.8169 51.0004 65.2137 55.1909 65.2137 60.4678C65.2137 64.9687 63.9721 69.0428 61.4888 72.6901C59.0832 76.3374 55.3971 79.2475 50.4305 81.4204C45.464 83.5932 39.4111 84.6797 32.2717 84.6797ZM133.066 64.6583H92.3247L84.2929 83.5156H68.6949L105.362 2.03347H120.261L157.045 83.5156H141.214L133.066 64.6583ZM128.06 52.7852L112.695 17.1659L97.4465 52.7852H128.06ZM200.74 84.6797C189.487 84.6797 180.718 81.5368 174.433 75.251C168.147 68.8876 165.004 59.8082 165.004 48.0127V2.03347H180.136V47.4307C180.136 63.4167 187.043 71.4097 200.856 71.4097C214.592 71.4097 221.459 63.4167 221.459 47.4307V2.03347H236.359V48.0127C236.359 59.8082 233.216 68.8876 226.93 75.251C220.722 81.5368 211.992 84.6797 200.74 84.6797ZM272.603 14.8378H245.598V2.03347H314.741V14.8378H287.735V83.5156H272.603V14.8378Z" fill="#273953"/>
</svg>
